<svg t="1648460892371" class="icon" viewBox="0 0 1024 1024" version="1.1" xmlns="http://www.w3.org/2000/svg" p-id="4970" width="200" height="200"><path d="M1014.944 607.936c-31.68-58.88-78.944-39.584-120.928-46.688l0.448-3.456c43.168-24.448 86.368-78.144 129.536-49.824-42.56-51.552-85.152-23.424-127.712-22.176l-0.256-3.456c37.6-32.384 69.472-93.504 117.376-74.176-51.776-42.24-88.032-6.432-129.504 3.136l-0.96-3.392c30.528-39.104 49.856-105.184 100.576-95.552-59.008-31.328-87.584 10.88-126.4 28.352l-1.6-3.136c22.304-44.32 28.384-112.896 80-113.344-64.032-19.2-83.808 27.808-118.496 52.512a165.088 165.088 0 0 0-2.176-2.784c13.248-47.808 5.856-116.288 56.416-126.816-66.56-6.368-76.832 43.584-106.08 74.56l-2.56-2.208c3.68-49.472-16.992-115.232 30.56-135.424-66.496 6.752-66.784 57.76-89.376 93.824l-3.04-1.76c-6.08-49.248-39.104-109.632 3.552-138.688-63.904 19.584-54.24 69.632-69.344 109.44l-3.36-1.152c-15.584-47.104-59.712-99.872-23.552-136.672-58.88 31.68-39.584 78.944-46.688 120.928l-3.456-0.448C533.376 86.368 479.68 43.168 508 0c-51.552 42.56-23.424 85.152-22.176 127.712L482.336 128c-32.384-37.6-93.504-69.472-74.176-117.376-42.24 51.776-6.432 88.032 3.136 129.504l-3.392 0.96C368.8 110.56 302.72 91.2 312.352 40.512c-31.328 59.008 10.88 87.584 28.352 126.4l-3.136 1.6c-44.32-22.304-112.896-28.384-113.344-80-19.232 64.032 27.808 83.808 52.48 118.528l-2.752 2.176c-47.84-13.28-116.32-5.856-126.816-56.416-6.368 66.56 43.584 76.832 74.56 106.08l-2.208 2.56c-49.504-3.68-115.264 16.992-135.424-30.56 6.752 66.496 57.76 66.784 93.824 89.376l-1.76 3.072c-49.248 6.08-109.632 39.104-138.688-3.552 19.584 63.904 69.632 54.24 109.44 69.344l-1.152 3.36c-47.104 15.584-99.872 59.712-136.672 23.552 31.68 58.88 78.944 39.584 120.928 46.656l-0.448 3.456C86.368 490.624 43.168 544.32 0 516c42.592 51.552 85.152 23.424 127.712 22.176l0.288 3.488c-37.6 32.384-69.472 93.504-117.376 74.176 51.776 42.24 88.032 6.432 129.504-3.136l0.96 3.392c-30.528 39.104-49.856 105.184-100.576 95.552 59.008 31.328 87.584-10.88 126.4-28.352l1.6 3.136c-22.304 44.32-28.384 112.896-80 113.344 64.032 19.232 83.808-27.808 118.496-52.512l2.176 2.784c-13.248 47.808-5.856 116.288-56.416 126.816 66.56 6.368 76.832-43.584 106.08-74.56l2.56 2.208c-3.68 49.472 16.992 115.232-30.528 135.424 66.496-6.752 66.784-57.76 89.376-93.824l3.04 1.76c6.08 49.248 39.104 109.632-3.552 138.688 63.904-19.584 54.24-69.632 69.344-109.44l3.36 1.152c15.584 47.104 59.712 99.872 23.552 136.672 58.88-31.68 39.584-78.912 46.688-120.928l3.456 0.448c24.448 43.2 78.144 86.368 49.824 129.536 51.552-42.56 23.424-85.152 22.176-127.712l3.456-0.256c32.384 37.6 93.504 69.472 74.176 117.376 42.24-51.776 6.432-88.032-3.136-129.504l3.392-0.96c39.104 30.528 105.184 49.856 95.552 100.576 31.328-59.008-10.88-87.584-28.352-126.4l3.136-1.6c44.32 22.304 112.896 28.384 113.344 80 19.232-64.032-27.808-83.808-52.512-118.496l2.784-2.176c47.808 13.248 116.288 5.856 126.816 56.416 6.368-66.56-43.584-76.832-74.56-106.08l2.208-2.56c49.472 3.68 115.232-16.992 135.424 30.56-6.752-66.496-57.76-66.784-93.824-89.376l1.76-3.072c49.248-6.08 109.632-39.104 138.688 3.552-19.584-63.904-69.632-54.24-109.44-69.344l1.152-3.36c47.168-15.648 99.936-59.808 136.736-23.648z" fill="#FFD83B" p-id="4971"></path><path d="M512 794.592c-155.84 0-282.592-126.784-282.592-282.592 0-155.84 126.784-282.624 282.592-282.624 155.84 0 282.592 126.784 282.592 282.624 0 155.84-126.752 282.592-282.592 282.592z" fill="#F3C432" p-id="4972"></path><path d="M559.296 423.456a66.336 66.336 0 0 0-47.2-19.552c-17.824 0-34.592 6.944-47.2 19.552a12.352 12.352 0 1 1-17.472-17.472 90.88 90.88 0 0 1 64.672-26.784c24.448 0 47.392 9.504 64.672 26.784a12.352 12.352 0 1 1-17.472 17.472z" fill="#5B5F63" p-id="4973"></path><path d="M714.816 333.28h-97.344a71.744 71.744 0 0 0-71.744 71.744 130.656 130.656 0 0 0 130.656 130.656h4.448a105.728 105.728 0 0 0 105.728-105.728v-24.928a71.744 71.744 0 0 0-71.744-71.744zM406.752 333.28H309.408a71.744 71.744 0 0 0-71.744 71.744v24.928a105.728 105.728 0 0 0 105.728 105.728h4.448a130.656 130.656 0 0 0 130.656-130.656 71.744 71.744 0 0 0-71.744-71.744z" fill="#3E4347" p-id="4974"></path><path d="M512 613.408c-47.52 0-90.848-9.184-124.16-24.288a78.528 78.528 0 0 0-2.08 16.288c0 55.008 56.512 99.584 126.24 99.584s126.24-44.576 126.24-99.584c0-5.568-0.96-10.944-2.08-16.288-33.312 15.072-76.64 24.288-124.16 24.288z" fill="#3F4347" p-id="4975"></path><path d="M422.592 675.68c22.848 18.08 54.464 29.312 89.408 29.312s66.528-11.2 89.408-29.312c-14.016-18.816-48.64-32.192-89.408-32.192-40.736 0-75.392 13.376-89.408 32.192z" fill="#8E6D53" p-id="4976"></path><path d="M350.816 333.28l-111.648 111.648c2.08 14.56 6.976 28.096 14.368 40.096l151.744-151.744h-54.464zM423.488 335.456l-161.344 161.376c4.512 5.472 9.504 10.432 15.008 14.912l167.424-167.424a70.72 70.72 0 0 0-21.088-8.864z" fill="#5A5F63" p-id="4977"></path><path d="M654.496 333.28l-104.192 104.192c3.52 13.664 8.96 26.528 16.384 38.08l142.272-142.272h-54.464zM727.968 334.624l-152.48 152.48c4.48 5.504 9.28 10.624 14.592 15.328l159.68-159.68a70.08 70.08 0 0 0-21.792-8.128z" fill="#5A5F63" p-id="4978"></path></svg>